<svg xmlns="http://www.w3.org/2000/svg" viewBox="0 0 472.3 425.9" preserveAspectRatio="xMidYMid">
	<path fill-rule="evenodd" clip-rule="evenodd" d="M470,234.5c-1-29.5-15.2-54.6-31.9-70.6c-10.7-4.2-18.1-11.9-28-16.6
		c-7.8-3.7-18.1-4.7-27.9-6.6c-7-1.4-14-3-21.1-2.9c-24.6,0.5-44.4,19.6-73.7,17c-17.7-1.6-37.7-1-52.8-4.8
		c-7.9-3.7-17.2-7.6-22.6-15.1c-3.4-4.7-4.8-9.3-8.4-13.2c-5-5.3-11.2-8.5-14.4-15.4c-4.8-10.3-11-16.1-18.5-24.7
		c-4.9-5.3-7.6-20.1-17.2-30c-5-4.7-11.7-7.9-18.7-10.6c-4.7-9.6-13.9-16-23.8-19.7c-5.7-6.6-15.5-11.5-28.1-9.6
		c-3-3.5-6.1-7.6-8.1-11.8c-1.2,1.5-0.9,3.7-0.3,7.2c0.3,1.8,0.4,3.7,0.4,5.7c-1.8,0.7-2.9,1.2-5,1c-5-0.5-6.4-5.2-10.5-6.9
		c-1.6,2.4,1.3,5.2,1,8.6c-3.6,2.7-8.5,4.2-9.8,9.1c-0.5,1.3,1.8,0.7,1,1.7c-3.3,3.8-4.5,9.7-5.3,16.1c0.4,0.5,1.7,0.1,1.7,1
		c-0.3,1.6-0.6,3.3-1,4.8c-8.7,7.3-18.4,19.6-29.8,26.9c-4.9,3.2-11.2,4.7-14.9,8.6C-1.4,87.6,0.3,90.9,1,96c0.5,3.7-1.6,9.4-0.7,13
		c0.9,3.8,9.1,5.3,13.4,3.4c0.7,2.7,3.2,5,6.5,3.1c4.9,3.6,12.1-2.6,16.3-5c0.4,0.6,1.4,0.5,2.4,0.5c7.3-2.6,16.5-5.7,25-7.9
		c9.3-2.4,19.3,0,25.2-6.7c6.6,4.1,10.6,12,13.2,19.7c10.2,30,18.1,65.6,40.3,83.5c-0.3,26.3,12.1,42.6,27.6,54.5
		c2.1,2.7,3.3,5.7,3.8,9.6c0.8,5.9,2.6,11.2,3.8,17.3c2,9.7,8.1,18,8.7,27.8c0.6,9.6-4.1,10.5,4.7,27.6c2,11.6,2.2,27.1,1.9,40.1
		c-17,26.9-23.1,28-29.5,42.1c8.3,3.4,22,5.9,29.2,0.6c-0.5-4.5,0.7-6.8,1-9.8c6.7,1.9,19.2,0.7,22.8-3.1c0.4-1.6,0.3-7.4,1.4-10.9
		c1.9-6.2,4.5-11.9,8.7-16.2c10.5-3.7,4.6-14.8,3.1-21.8c-1.5-7.3-0.9-15.5-2.4-22.3c0.3,0,0.4,0.3,0.5,0c-0.8-1.8-2.1-9.1-1-13.2
		c1.1-3.9,3.9-8,3.1-12c-0.6-3.1-3.2-5.8-3.8-9.1c-0.9-5,0.5-14,0.2-19.3c0-7-0.1-9-0.2-16c19.2,6.3,38.5,12.3,61.4,12
		c14.8-0.2,31.3-3.8,41.5-10.1c5.2-3.2,11.9-7.9,17.5-9.1c4.8-1.1,10.2,2.2,14.9,1c3.9,8.2,9.3,15.6,14.4,23.5
		c4.6,7.1,12.4,15.9,13.9,24.2c1,5.4,3.6,9.9,3.8,15.8c0.3,7.6-0.6,14.3-1.7,20.4c-1.9,10.6-8.5,19.2-7.9,30
		c-4.9,13.1-17.3,20-18,36.5c4.2,0.5,9.6,2.6,15.8,2.4c3-0.1,10.7-2,11.5-4.8c0.7-2.2,1.5-5.3,1.2-11.3c-0.4-3.8,0.1-14.9,4.1-20.9
		c1.4-0.6,2.3-1.7,3.8-2.2c9-19.1,7.6-45.6,9.1-69.4c-1.9-3.1-4.4-8-3.4-12.5c5,10.8,17.4,18.9,19.2,33.1
		c1.7,13.1,1.9,33.2,1.4,46.8c-0.2,4.5-3.7,9.5-1.7,14.6c-3.6,7.4-6.1,14.5-10.8,21.5c-3.1,4.6-6.3,9.4-6.9,16.4
		c4.8,1.7,12.3,3.3,18.5,2.2c3-0.5,6.6-1.6,8.3-3.5c2-2.4,1.7-6,2-9.9c0.3-3.6-2.1-7-1.2-10.6c0.9-3.4,3.4-10.3,6.2-12.4
		c4-3.1,7-7.5,5.3-13.7c-0.3-0.7-1.4-0.7-1.4-1.7c-0.8-13.7-1.7-25.1-0.7-40.1c1.8,8,1.6,18.5,4.8,23.8c2-16,2.2-32.4,3.6-48.2
		c1.9,20.8-0.9,49.5,2.9,66.7c2.1-5.3,1.2-13.4,3.1-18c0.9,9.7-0.9,22.4,0.2,31.2c7.3-29.4,7-31.3,7.6-47.8
		c1.7-16.5-0.9-33.4-1.1-49.9c1.9,8.3,1.6,24.9,1.9,33.7C474.8,298.7,470.8,259.1,470,234.5L470,234.5z M433.3,271.7
		c-3.8-8.4-2.6-20.8-1.7-29.3C433.5,251.4,433.2,264,433.3,271.7L433.3,271.7z M211.5,372.7c-4.8-10.5-1.7-26-1.4-39.1
		C211.6,345.5,215.6,360.3,211.5,372.7z"/>
	<path fill-rule="evenodd" clip-rule="evenodd" fill="#9D937B" d="M74.5,14.5c0,6,0.2,12.2,3.6,15.8c-2.8,3.7-6.1,6.9-8.2,11.3
		c-0.9-3.3,0.4-7,0.7-10.1c-6.1,6.3-15,13.1-20.4,20.2c0.8-5.3,5.6-6.7,6.7-11.8c-3.7,0.7-5.4,2.5-8.4,7c0.8-6.4,4.3-10.7,5.8-16.1
		c-1.7,0.1-5,5.5-6.1,7.7c0.4-5.4,3.7-10.3,6.7-13.2c-0.6-0.9-2.1-0.5-3.2-0.6c2.8-5,6.8-4.9,7.4-6.3c2.2-2.7,8.3-1.6,11.9-2.6
		C72.4,15.3,73.1,14.5,74.5,14.5z"/>
	<path fill-rule="evenodd" clip-rule="evenodd" fill="#CA6C38" d="M429.7,175c-1.1,4.1,1.7,8.3,2.4,12.2c5.2,27.6-7.9,55.7-2.2,80.6
		c2.6,11.4,6.6,22.8,12.2,32.2c2.3,3.9,6.9,6.5,6.5,12.2c-0.7,9.8-4.9,19.2-4.1,30.7c0.8,11.2-0.4,23.4,1.7,34.8
		c0.4,0.8,1.4-0.5,1.4,0.5c1.2,5.5-3.6,7-6.4,10.1c-3.4,3.8-5.4,11.8-6.6,19c-5,1.8-12.3,1.5-15.8-1.4c5-5.2,6.8-13.7,10.8-19.9
		c-2-4.3,0.8-8.7,1.2-14.2c0.9-11.1-0.3-24.4-0.2-35.5c0-12.6-3-21.7-7.8-29.6c-7.2-11.7-8.5-12.6-18.4-22.2
		c-4.9-4.8-9.6-9.7-14.1-15.4c-5.3-6.6-14-14.8-21.4-20.4c-3.4-2.6-9.3-5.4-13.7-6c-1.3-0.2-4.4-1.1-5,1.7
		c8.4,1.2,15.9,3.4,20.2,9.4c-3.6,0.6-6.7,3.7-11.5,3.4c-2.9-0.2-6.1-2.3-10.6-1.7c-5.5,0.7-11.7,5.6-16.8,8.6
		c-17.5,10.6-46.4,12.1-71.5,8.2c-14-2.2-25.3-8.9-40.3-11c0.6-5.2,3.6-10,3.1-17c-1.7,1.3-2.9,7.3-5.1,12.9c-1.9,5-4.8,9.5-6,12.3
		c-5.6,14-3.5,34.3-4.5,51.8c4.6,5.5,0.1,13.1-1.2,19.2c0.4,1.3,1.2-0.6,1.7,0c1.3,9.1-2.2,19.2-0.2,27.8c0.9,4.1,3.5,6.8,2.9,11.5
		c-0.5,4.2-4.4,6.8-7.9,8.6c-4.3,5.8-10.5,9.6-10.3,19.9c-6.3,0.3-14.9,3.4-19.4,0c8.5-9.1,14.3-20.9,22.3-30.5
		c0.2-14.3,0.2-27.1-1-38.6c1.6,0,1.2,2,2.6,2.2c-1.8-8-8.5-11.2-8.2-21.8c0.2-6.1,1.4-10.8-0.2-16.6c-1.7-6.1-5.3-11.4-7-17.8
		c-2.4-9-4.3-18.1-6.5-28.1c-0.2-3.3,1.7-8.3,0-10.8c-0.6,1.3-0.9,4.5-1.9,6.2c-2.4-3-3.1-7.8-4.6-11.8c-1.7,2.6-0.1,6.6,0.5,9.4
		c-10.8-8.6-20-20.4-23.3-36.7c-3-15.2,0.1-31-7.9-42.5c-0.1,8.6,5.2,16.7,4.8,26.4c-21.7-20.2-30.2-55.5-39.4-86.6
		c-0.8-5-7.3-8-7.7-13.2c-0.3-4.2,3.3-10.5,4.3-15.1c1.2-5.5,0.6-12.5,1.9-17.5c0.4-1.4,2.1-2.6,2.2-4.1c0.3-7-3-15.9-2.9-24
		c3,1.2,5.3,3.1,8.4,4.3c10.7,5.7,9.7,23.1,19.9,29.3c-0.2-1.3-0.9-3-1.2-4.6c5.7,6.6,9.6,21,4.8,31.2c3.6-0.6,5.3-6.4,6.2-9.6
		c2.5,5.3,5.3,12.4,11.5,14.9c1-3.5-4.2-4.7-3.6-9.4c8,8.8,20.7,11.3,27.1,21.6c2.4,3.9,3.3,9,5,13.2c3.5,8.4,8.3,15.6,13.4,22.6
		c0.4-3.9-4.1-7.1-4.6-11.8c6.3,7.4,12.4,16,13.4,27.8c2.7-5.5,3.4-13.1,2.4-19.9c8.1,3.4,16.4,6.9,26.2,6.5c5.2-0.2,8.7,1,13.4,1.9
		c10.8,2.1,25.9,2.1,37.7,2.4c4.9,0.1,9.9,1.5,15.6,1c24.5-2.5,44.3-20.1,70.1-17.8c5.7,0.5,11.7,2,17.5,3.4
		c5.9,1.4,11.8,1.7,17.3,2.6c11,1.9,19,11.9,27.1,16.6c2.9,1.7,6.7,2.4,9.8,4.8c15.2,11.9,27.9,40.5,29.8,65.8
		c1.8,25.6,3.6,47,2.4,73c-0.4-8.9-1.7-17.7-3.6-25.4c-0.1,33,4.2,68.5-4.8,98.4c-0.1-13,0.7-26.6-1.7-39.4c-2,9,0.1,20.7-3.1,29.3
		c-0.3-21.1,0.1-46.7-1.7-68.9c0.1-1-1-0.7-1.4-1.2c-0.5-2.9,0.3-7.2-1-9.4c-0.5,17.4-0.7,43.6-2.6,59.8c-0.1-6.3-3.2-14.7-3.6-21.8
		c-0.4-6.8,4.8-13.8,2.6-21.1c-0.8-2.7-3.1-3.7-5-6.2c-3.7-4.8-9.3-15.4-9.6-21.8c-0.6-12.4,1.1-23.8-1-36c-0.3-2-1.7-3.9-1.9-6
		c-1.2-9.9,3.8-20.6,2.9-31.7C434.5,195,435.4,181.5,429.7,175z"/>
	<path fill-rule="evenodd" clip-rule="evenodd" fill="#FFFFFF" d="M460.9,356.4C461,356.3,460,357.3,460.9,356.4L460.9,356.4z"/>
	<path fill-rule="evenodd" clip-rule="evenodd" d="M459.7,314.7c-1-24.8-0.5-46.5-0.5-71.5C461.1,266.9,460,292.4,459.7,314.7z"/>
	<path fill-rule="evenodd" clip-rule="evenodd" d="M455.1,271c-1.1-14.4-0.9-31.2-2.2-45.1C456.2,240.3,455.2,256.2,455.1,271z"/>
	<path fill-rule="evenodd" clip-rule="evenodd" d="M452.5,274.3c-1.9-19.1-0.6-37.2-4.3-53.8c-3.6-16.3-8.3-31.3-12.2-46.1
		C449.1,202.1,454.1,237.5,452.5,274.3z"/>
	<path fill-rule="evenodd" clip-rule="evenodd" d="M440.5,323.3c4.1-3.4,3.4-8.6,1-14.4C446.5,311.4,447.3,323.2,440.5,323.3z"/>
	<path fill-rule="evenodd" clip-rule="evenodd" d="M440.7,383.5c1.9-3.2,2.7-6.5,1.9-10.8C446.4,375.2,443.8,383.1,440.7,383.5z"/>
	<path fill-rule="evenodd" clip-rule="evenodd" d="M441,246.5c-0.9-15.8-3.4-32.2-4.8-47.8C441.2,211.6,441.5,232,441,246.5z"/>
	<path fill-rule="evenodd" clip-rule="evenodd" fill="#40302D" d="M435.4,420.3c-5.2,4.2-17.1,3.2-23.8,1c1.1-4.1,2.9-9.4,5.5-12.7
		c6,2.5,12.6,2.6,19,0.5C437.7,412.7,435.6,416.2,435.4,420.3z"/>
	<path fill-rule="evenodd" clip-rule="evenodd" d="M419.6,235c1.2-14.4,4.3-31.8,1.7-45.4C426.1,202.6,422,221.6,419.6,235z"/>
	<path fill-rule="evenodd" clip-rule="evenodd" fill="#883931" d="M401.8,355c0.2,6-2.4,11.6-5.8,14.4
		C402.2,368.5,404.4,360.3,401.8,355L401.8,355z M405.7,301c-1.5,1.8-0.1,7.9-1,10.6C407.1,309.7,407.2,303.4,405.7,301L405.7,301z
		 M397.3,373.5c-1.7,6.9-5.4,11.7-4.6,20.6c-5.7,2.3-13,2-18.2-1c1.5-4.2,6.1-6.7,8.2-10.8c1.3-2.7,4.2-7.9,4.3-10.3
		c0-1.1-0.9-1.7-1-2.9c-0.5-5,5.1-11.8,6.5-17.3c2.6-10.5,5.2-23.5,2.9-35.5c-1-5-4.7-15.1-7.2-19.4c-7.5-13-17.4-24.9-24.2-38.6
		c2.8-1,5.1-2.4,8.2-3.1c13.4,9.4,21.6,24.2,34.3,34.3c0.3,6.5,1.2,11.6,4.1,15.8c0.2,20.2-2.5,43-5.8,59.3
		C403.9,368.8,401.4,372.3,397.3,373.5z"/>
	<path fill-rule="evenodd" clip-rule="evenodd" d="M404.7,311.5c0.9-2.7-0.5-8.7,1-10.6C407.2,303.4,407.1,309.7,404.7,311.5z"/>
	<path fill-rule="evenodd" clip-rule="evenodd" d="M396.1,369.4c3.4-2.8,5.9-8.4,5.8-14.4C404.4,360.3,402.2,368.5,396.1,369.4z"/>
	<path fill-rule="evenodd" clip-rule="evenodd" fill="#40302D" d="M392.7,396.7c1.2,16.1-15.1,12.9-23.8,9.8c0-3.6,1.9-7.1,3.8-10.6
		C378.9,398.3,385.7,398.5,392.7,396.7z"/>
	<path fill-rule="evenodd" clip-rule="evenodd" fill="#883931" d="M215.6,397.5c-6.2,1.6-13,1.2-17.8-1.2
		c3.3-7.2,15.6-8.9,14.2-20.9c6.9-12.1,0.6-30.7-0.7-47.3c-0.4-4.5-1.9-8.3-2.2-12.2c-0.6-10.7,1.5-23.1,1.9-33.6
		c0.3-7.2,4.1-12.8,7.4-18.5c1.7,0.2,3.5,0.3,5,0.7c1.8,11.7-1.2,25.7,0.5,36.7c0.6,3.8,3.2,6.7,3.8,9.8c0.8,4-2.2,7.4-2.9,9.8
		c-0.7,2.6-0.3,7.9,0,11.8c0.4,6.2,2,14.4,2.6,20.6c0.2,2.4,0,4.8,0.5,6.7c0.9,3.8,5.2,9.2,2.2,14.2c-0.9,1.5-2.5,1.7-4.1,2.9
		C220.4,381.6,218.3,390.1,215.6,397.5z"/>
	<path fill-rule="evenodd" clip-rule="evenodd" fill="#40302D" d="M215.1,400.1c-0.5,2.1-0.2,3.8-1,5.5c-4.9,1.7-15.9,4.1-20.3,0
		c0-2.5,0.5-5.4,2.2-7.2C201,400.4,208.4,401.7,215.1,400.1z"/>
	<path fill-rule="evenodd" clip-rule="evenodd" fill="#40302D" d="M192.1,411.1c-0.6,12.7-16.3,8.5-24.5,6c-0.2-3.2,2.5-5.4,3-6.6
		C175.4,414.2,185.8,411.7,192.1,411.1z"/>
	<path fill-rule="evenodd" clip-rule="evenodd" d="M175,169c-5.6,4-9.3,9.9-12.5,16.3C162.9,177.2,167.9,170.3,175,169z"/>
	<path fill-rule="evenodd" clip-rule="evenodd" d="M134,170.9c-16.7-21.6-17.6-55.8-25.9-84.7C120.2,112.4,118.7,147.8,134,170.9z"
		/>
	<path fill-rule="evenodd" clip-rule="evenodd" fill="#6C4F41" d="M101.1,60.3c0.3,1.1-0.8,2.8-2.2,2.9
		C93,63.6,99.7,54.8,101.1,60.3z"/>
	<path fill-rule="evenodd" clip-rule="evenodd" fill="#6C4F41" d="M100.9,56.2c-1,0-1.7-0.4-2.9-0.2c0-10.6-2.9-18.5-4.1-26.6
		C100.7,34,99.7,46.3,100.9,56.2z"/>
	<path fill-rule="evenodd" clip-rule="evenodd" fill="#6C4F41" d="M93.2,96.3c2.3-7.9,4.1-20.6,6-30.5C100.8,76,97.2,88.5,93.2,96.3
		z"/>
	<path fill-rule="evenodd" clip-rule="evenodd" fill="#AF4F33" d="M91,93.9c-1,0.2-0.7-0.7-1.7-0.5c-8,6.6-26.1,8.6-36.4,3.4
		c2.6,4,6.3,4.3,7.4,5c-6.6,0.9-13,4.2-19,4.1c-0.4-2.3-1.4-4-2.2-6c20.2-10.5,40.3-21,54.5-37.4C99.1,70.4,94.4,86,91,93.9z"/>
	<path fill-rule="evenodd" clip-rule="evenodd" fill="#CA6C38" d="M35.8,93.6c-3.7-7.1-8.5-13.1-13-19.4c8.9-8.1,18.4-16.8,26.4-25
		c-0.4,3-1.9,5.9-1.2,9.1c4.5-8.9,12.8-15.8,20.2-22.6c-0.5,3.3,0.2,7.1,1.7,9.1c2.1-4.9,5.2-8.9,8.2-13c1.2-0.2,1.2,0.8,2.2,0.2
		c-1.2-5.8-5.6-11.8-4.1-19.7c4.3,6.5,9.2,13.5,9.6,23c3.4-11-5.4-17.5-7.9-25.7c3.3,9.3,14.9,12.7,13.7,25
		c3.6,5.3,3.7,14.7,4.1,22.6C80.7,74.5,59.8,85.5,35.8,93.6z"/>
	<path fill-rule="evenodd" clip-rule="evenodd" fill="#DDCEBD" d="M61.8,15.1c0-1.7-0.7-2.7-0.5-4.6C62.6,11.8,66,15,61.8,15.1z"/>
	<path fill-rule="evenodd" clip-rule="evenodd" fill="#6C4F41" d="M38.2,108c0.2-2.2-2-4.1-2.4-6.5c1,0.2,1.1-0.7,1.9-0.7
		C38.3,103,41.9,107.4,38.2,108z"/>
	<path fill-rule="evenodd" clip-rule="evenodd" fill="#6C4F41" d="M37,98.9c-0.9,0.6-1.9-0.8-1.7-2.2C36.5,96.8,36.2,98.4,37,98.9z"
		/>
	<path fill-rule="evenodd" clip-rule="evenodd" fill="#CA6C38" d="M21.2,112.1c-1.3,0.7-2.6,1.4-4.8,1.2c0.1-0.7-0.5-0.7-0.5-1.4
		c3.3-1.5,6.8-4.9,11-3.8c0.7-0.3,0.6-2.1,0.2-2.6c-7.6-0.9-17.2,9.9-25.2,2.4c3-7.3-1.9-13.3-1-19c1-6.1,10.2-7.5,15.1-10.6
		c9.6,7,14.8,18.4,20.4,29.3C33,109.8,24.3,117,21.2,112.1z"/>
	<path fill-rule="evenodd" clip-rule="evenodd" fill="#6C4F41" d="M33.9,97.9c-5-7.2-8.4-16.1-15.6-21.1c0.5-0.8,0.9-1.6,1.9-1.9
		c3.5,3.4,7.1,8.8,10.8,13.4C33.1,90.9,35.4,94.4,33.9,97.9z"/>
	<path fill-rule="evenodd" clip-rule="evenodd" fill="#6C4F41" d="M62,85.2c-6.1,3.9-16,9.4-23.8,12.5c0-3,4.4-3.2,7-4.3
		C50.8,91,56.3,86.8,62,85.2z"/>
	<path fill-rule="evenodd" clip-rule="evenodd" fill="#9D937B" d="M230.5,150.3c-11.2,1.3-22.9-2.8-28.6-9.4
		c-0.8,5.2,3.2,13.2,0,19.4c-3.1-14.2-13.3-21.3-18-33.8c-0.9,4,1.7,8.5,2.6,12.2c-4.9-7-7.7-16.6-11-24.5
		c-6.7-13.2-25.2-14.5-30-29.5c-2.4,2.5,0.3,7.5,0,11c-6.8-5.6-2.9-18.2-6.2-25.7c-0.7,5.3,0.9,14.5-2.4,19
		c0-10.8-3.5-22.8-10.6-28.8c-0.7,0.8-1.3,3.1-0.5,4.8c-4.1-5-4.4-12.4-7.7-17.5c-5.8-9.1-17.1-12-23.3-20.6c-0.6-0.7-1.2,0.6-1.7,0
		c-1.3-5.6-7.1-6.9-8.6-12.2c24.5-3.3,32.9,19.2,45.1,32.2c-3.7-6.6-8.3-14.4-13.4-20.4c8.8,4,15.2,10.4,19.2,19.2
		c1.1-0.2,0.2-1.2,0.7-1.7c19.5,5.8,26.7,23.9,33.1,42.7c0.7-0.9,0-2.5-0.5-3.1c5,4.8,10.5,9.1,14.6,15.4c3,4.6,4.2,11.2,7.7,15.4
		c3.3,3.9,8.9,5.8,12.5,9.8c4.2,4.9,5.7,11.1,10.1,16.3C219,143,223.8,148.2,230.5,150.3z"/>
	<path fill-rule="evenodd" clip-rule="evenodd" fill="#E2DFCD" d="M65.8,16.2c-3.2,0.7-8.4,3.5-11.1,6.7c4.6-1.9,8.2-3.2,11.1-2.8
		c-6.9,4.5-7.8,13.2-8.1,17.3c6-10.1,12.8-9.7,16.8-10.3c-2,2.6-3.9,5.5-4.3,13.9c-0.1,0.2-0.2,0.4-0.3,0.6c-0.9-3.3,0.4-7,0.7-10.1
		c-6.1,6.3-15,13.1-20.4,20.2c0.7-6.2,5.6-8.9,7.1-11.4c-3.1,1.1-6.3,3.3-9.3,7.7c0.3-8,4.1-13.9,6.2-17.2c-1.7,0.1-5,5.5-6.1,7.7
		c0.4-5.4,3.7-10.3,6.7-13.2c-0.6-0.9-2.1-0.5-3.2-0.6C52.6,20.5,61.7,15.2,65.8,16.2z"/>
	<path fill-rule="evenodd" clip-rule="evenodd" fill="#E2DFCD" d="M124.3,58.3c-3.9-22.1-23.8-23-33.1-40.3
		c6.8,8.3,20.2,10.1,27.2,18.5C125,44.4,125.7,49.5,124.3,58.3z"/>
	<path fill-rule="evenodd" clip-rule="evenodd" fill="#E2DFCD" d="M136,62.8c1.6-10.4-0.6-19.3-9-26.2c1.5,2.7,4.1,8.4,4.9,11.5
		c0.9,3.3,0.4,5.6-1.2,8.6c-1.7,3.2,1.2-0.9,2.3-0.2c1.4,0.9,1.6,11.4,1.9,13.4C135.7,74.5,135.7,63.7,136,62.8z"/>
	<path fill-rule="evenodd" clip-rule="evenodd" fill="#E2DFCD" d="M160.8,79.9c-0.3-6.1-3.5-12.1-6.4-17.3
		c-4.2-7.6-6.5-10.6-13.8-15.4c5.9,10,1.5,22.8,6.8,33.4c4.4,8.9,11.4,12.3,19.1,17.9c3,2.2,8,13.8,5.8,4.3
		c-3-13.3-19.7-13.3-20-31.1C152,59.2,159.1,77.2,160.8,79.9z"/>
	<path fill-rule="evenodd" clip-rule="evenodd" fill="#E2DFCD" d="M188.2,122.7c-1.4-6.7-1.3-14.3-4.7-20.4
		c-2.1-3.8-7.4-10.4-10.7-13c3.5,5.2,3.2,12.8,4.9,18.7C179.4,113.8,183,118.6,188.2,122.7z"/>
	<path fill-rule="evenodd" clip-rule="evenodd" fill="#AF4F33" d="M2.7,105.7c6.7,3.2,13.2-0.4,18.3-4.3c3.5-2.6,7.2-4,6.7-8.7
		c-0.2-0.9-0.5-1.9-0.7-2.8c3.6,5.5,6.6,11.6,9.7,17.6c-3.5,2.3-12.3,9.5-15.4,4.6c-1.3,0.7-2.6,1.4-4.8,1.2
		c0.1-0.7-0.5-0.7-0.5-1.4c3.3-1.5,6.8-4.9,11-3.8c0.7-0.3,0.6-2.1,0.2-2.6c-7.6-0.9-17.2,9.9-25.2,2.4
		C2.3,107.1,2.5,106.4,2.7,105.7z"/>
	<path fill-rule="evenodd" clip-rule="evenodd" fill="#AF4F33" d="M29.1,82.8l4,2.2c9.5,1.2,16.3-3.3,24.5-7.8
		c9.2-2.3,26.3-5.5,22.2-17.9c-5.9,2.4-10.3,4.4-16.7,3.9c-5.3,4.1-9.5,8.3-14,13.2c0.5-7.5,4.9-12.9,7.4-20.2
		c-0.1-0.9-1.5-1.5-1.6-2.4c6-4,11.4-3.4,18.3-3.4c10.8-0.5,14.3-3.7,16.7-14.4l1.7-3.8c0,0.8,0,1.7-0.1,2.6
		c3.6,5.3,3.7,14.7,4.1,22.6C80.7,74.5,59.8,85.5,35.8,93.6C33.8,89.8,31.5,86.3,29.1,82.8z"/>
	<path fill-rule="evenodd" clip-rule="evenodd" fill="#AF4F33" d="M106.6,78.8c1.9,7.8,3.9,15.6,5.8,23.3l5.8,31.5
		c0,0,6.2,22.6,8.2,25.3c1.9,2.7,10.1,14,10.1,14l1.4,1.8c1.1,7.2,4.9,14.4,4.5,22.6c-21.7-20.2-30.2-55.5-39.4-86.6
		c-0.8-5-7.3-8-7.7-13.2c-0.3-4.2,3.3-10.5,4.3-15.1c1.2-5.5,0.6-12.5,1.9-17.5c0.4-1.4,2.1-2.6,2.2-4.1c0.3-7-3-15.9-2.9-24
		c3,1.2,5.3,3.1,8.4,4.3c10.7,5.7,9.7,23.1,19.9,29.3c-0.2-1.3-0.9-3-1.2-4.6c5.7,6.6,9.6,21,4.8,31.2c3.6-0.6,5.3-6.4,6.2-9.6
		c2.5,5.3,5.3,12.4,11.5,14.9c1-3.5-4.2-4.7-3.6-9.4c8,8.8,20.7,11.3,27.1,21.6c2.4,3.9,3.3,9,5,13.2c3.5,8.4,8.3,15.6,13.4,22.6
		c0.4-3.9-4.1-7.1-4.6-11.8c5.9,6.9,11.7,14.9,13.2,25.7l-3.2,0.9c-14.3,4.4-22.4,6-31.1,18.7l-5.4,12.4c-0.5-10-0.7-16.7,1.9-26.3
		c6-23,2.6-30.8-18.3-49.2c-3.8-3.3-7.5-6.9-11.2-10.6C124.6,107.3,116.6,76,106.6,78.8L106.6,78.8z M286.2,157.7l-1.2,0.4
		c-15.2,1.2-30.2,11.3-44.1,11c-7.3-0.2-16.3-2.2-28.3-5.3l-10.2,0c1.8-5.2,2.2-11.6,1.4-17.4c8.1,3.4,16.4,6.9,26.2,6.5
		c5.2-0.2,8.7,1,13.4,1.9c10.8,2.1,25.9,2.1,37.7,2.4C282.8,157.3,284.5,157.4,286.2,157.7z"/>
	<path fill-rule="evenodd" clip-rule="evenodd" fill="#AF4F33" d="M176.1,404.3l9.2-0.5c5.3-8.6,8.2-11.3,7.6-21.7l-0.2-1.5
		c0.7-1,1.5-1.9,2.2-2.8l0-1.1l0.6,1.7l3.8-0.5c2.3-14,1.9-20.1-1.1-34.1l-2.4-4.8c-1.5-4-4.2-6.9-5.9-10.9l5,0.5l3.3-2.7l1.6-4.9
		v-7c-2.3-17.3-6.6-33.5-14.1-49.3l-3.8-8.1l-2.7-3.3l-3.8,6l-0.2,0.3c-0.2-0.8-0.3-1.6-0.5-2.4c-0.2-3.3,1.7-8.3,0-10.8
		c-0.6,1.3-0.9,4.5-1.9,6.2c-2.4-3-3.1-7.8-4.6-11.8c-1.7,2.6-0.1,6.6,0.5,9.4c-6.9-5.5-13.2-12.3-17.7-20.8
		c6.3,6.3,8.9,10.4,16.8,4.9v-6l6.5,11.4l8.7,8.1c11.8,8.4,18.7,0.4,27.6-9.2c11.5-20.4,29.8-19.1,43.4-4.9
		c16.3,17.1,40,10.8,58.8,2.2c8.8-4,11.8-5.4,16.5-13.6c3.1-13.2,4-26.6,5.4-40.1c2-16.4,8.6-26.4,12.2-30.2
		c-2,4.3-4.3,16.1-4.6,22.2c-0.9,20.1,19.2,45.1,31.5,58.9c13.4,15.1,32.8,20.1,39.4-0.6c5.2-16.2,11-63.6-10.3-72.2
		c-2.7-1.1-35.1-13.4-39.9-14c-13-1.4-23.4,3.2-37.2,3.3c13-5.2,26-10.6,40.9-9.2c5.7,0.5,11.7,2,17.5,3.4
		c5.9,1.4,11.8,1.7,17.3,2.6c11,1.9,19,11.9,27.1,16.6c2.9,1.7,6.7,2.4,9.8,4.8c15.2,11.9,27.9,40.5,29.8,65.8
		c1.8,25.6,3.6,47,2.4,73c-0.4-8.9-1.7-17.7-3.6-25.4c-0.1,33,4.2,68.5-4.8,98.4c-0.1-13,0.7-26.6-1.7-39.4c-2,9,0.1,20.7-3.1,29.3
		c-0.3-21.1,0.1-46.7-1.7-68.9c0.1-1-1-0.7-1.4-1.2c-0.5-2.9,0.3-7.2-1-9.4c-0.5,17.4-0.7,43.6-2.6,59.8c-0.1-6.3-3.2-14.7-3.6-21.8
		c-0.4-6.8,4.8-13.8,2.6-21.1c-0.8-2.7-3.1-3.7-5-6.2c-3.7-4.8-9.3-15.4-9.6-21.8c-0.6-12.4,1.1-23.8-1-36c-0.3-2-1.7-3.9-1.9-6
		c-1.2-9.9,3.8-20.6,2.9-31.7c-0.7-10,0.2-23.5-5.5-30c-1.1,4.1,1.7,8.3,2.4,12.2c5.2,27.6-7.9,55.7-2.2,80.6
		c2.6,11.4,6.6,22.8,12.2,32.2c2.3,3.9,6.9,6.5,6.5,12.2c-0.7,9.8-4.9,19.2-4.1,30.7c0.8,11.2-0.4,23.4,1.7,34.8
		c0.4,0.8,1.4-0.5,1.4,0.5c1.2,5.5-3.6,7-6.4,10.1c-3.4,3.8-5.4,11.8-6.6,19c-5,1.8-12.3,1.5-15.8-1.4c1.8-1.9,3.2-4.2,4.4-6.6
		c8,3.6,10.2-5.1,11.1-15.2l-5.1,1.1c-1.2-3.6,0.6-7.3,1.3-11.7c11.7,3.9,7.1-49.9,2.8-59l-13.5-13l-0.6-0.2
		c-4.5-6.8-6.9-8.9-14.9-16.8c-4.9-4.8-9.6-9.7-14.1-15.4c-5.3-6.6-14-14.8-21.4-20.4c-3.4-2.6-9.3-5.4-13.7-6
		c-1.3-0.2-4.4-1.1-5,1.7c8.4,1.2,15.9,3.4,20.2,9.4c-3.6,0.6-6.7,3.7-11.5,3.4c-2.9-0.2-6.1-2.3-10.6-1.7
		c-5.5,0.7-11.7,5.6-16.8,8.6c-17.5,10.6-46.4,12.1-71.5,8.2c-14-2.2-25.3-8.9-40.3-11c0.6-5.2,3.6-10,3.1-17
		c-1.7,1.3-2.9,7.3-5.1,12.9c-1.9,5-4.8,9.5-6,12.3c-5.6,14-3.5,34.3-4.5,51.8c4.6,5.5,0.1,13.1-1.2,19.2c0.4,1.3,1.2-0.6,1.7,0
		c1.3,9.1-2.2,19.2-0.2,27.8c0.9,4.1,3.5,6.8,2.9,11.5c-0.5,4.2-4.4,6.8-7.9,8.6c-4.3,5.8-10.5,9.6-10.3,19.9
		c-6.3,0.3-14.9,3.4-19.4,0C173.8,407,175,405.6,176.1,404.3z"/>
	<path fill-rule="evenodd" clip-rule="evenodd" d="M341.8,188.4c-4.5-9.7-3.1-28.2,3.6-33.4C340.8,163.7,339.2,176.3,341.8,188.4z"
		/>
	<path fill-rule="evenodd" clip-rule="evenodd" d="M63,61c-1.3,0.9-2.8,3.6-5,2.2c-0.1-3,2.4-3.4,2.2-6.5c-0.7-0.5-1.5,0.9-2.9,0.5
		c1-8.4,12.7-3.9,18.5-3.8c1.8,1.1-0.6,3-1.2,3.8c-0.1,0.9,0.9,1.4,0.2,2.2C72.2,61.6,67.4,61.3,63,61z"/>
	<path fill-rule="evenodd" clip-rule="evenodd" fill="#58574B" d="M71.1,55.9c-0.9,3.5-6.4,1.8-9.1,2.4C62,52.3,67.4,55.1,71.1,55.9
		z"/>
	<path fill-rule="evenodd" clip-rule="evenodd" d="M65.8,59c1.9,0,3.4-1.1,3.4-2.5c0-1.4-1.5-2.5-3.4-2.5s-3.4,1.1-3.4,2.5
		C62.3,57.9,63.9,59,65.8,59z"/>
	<ellipse fill-rule="evenodd" clip-rule="evenodd" fill="#A78B6B" cx="68.4" cy="56.4" rx="1.8" ry="0.8"/>
	<ellipse fill-rule="evenodd" clip-rule="evenodd" fill="#FFFFFF" cx="68.2" cy="56.2" rx="0.9" ry="0.7"/>
	<path fill-rule="evenodd" clip-rule="evenodd" fill="#DC9F74" d="M55.5,52.9c3.1-2.4,6.7-3.8,10.7-4c0.4,0,5.7,0.2,4.4-1.1
		c-1.5-1.5-4.6-0.5-5.8-3.3c-0.6-1.4-0.3-4.4-2.6-2.5C61.2,43,53.7,52.1,55.5,52.9z"/>
	<path fill-rule="evenodd" clip-rule="evenodd" fill="#7D3A31" d="M9.4,95.3C8,97.4,9.6,96.6,10.9,96c1.8-0.9-1.2,5.4,1.6,5.9
		c0.7,0.1,1.2-2.3,1.5-2.9c1-1.7,2-3.1,2.7-4.9c0.7-1.9,2.6-5-0.1-5.8C12.1,87.1,12.2,93.8,9.4,95.3z"/>
	<path fill-rule="evenodd" clip-rule="evenodd" fill="#E89F71" d="M3,102.1c0.7,0.6,1.4-0.2,1.9-3.8c0.7-4.8-2.6-11.4,3.4-13.9
		c2.8-1.2-0.6,4,1.8,3.4c1.6-0.4,2.1-4.2,3.9-5.3c0.8-0.5,3.6-1,5.5-1.6c-1-0.9-2.1-1.8-3.2-2.7C11.3,81.3,2,82.8,1,88.8
		C0.4,93,2.8,97.3,3,102.1z"/>
	<path fill-rule="evenodd" clip-rule="evenodd" fill="#E89F71" d="M13.6,84.8c-1.5,1.9-4,6.6-4.1,9.2c-0.1,1.7,4.1-2.7,4.6-3.2
		c0.9-0.9,2.6-2.9,3.2-0.9c1.3,4.5-4.6,7.3-4.3,9.1c0.2,1.1,3.4-2.2,3.7-2.6c2.1-2.2,4.2-8.1,2.7-11C18.6,83.7,15.3,84.9,13.6,84.8z
		"/>
	<path fill-rule="evenodd" clip-rule="evenodd" d="M19,86.9c-1.2-1.5-4.7-1.7-5.5,0.2C11,82.9,20.8,81.7,19,86.9z"/>
	<path fill-rule="evenodd" clip-rule="evenodd" d="M13.3,99.9c-2.2-3.7,6-4.9,3.1-10.1c-3.1,1.8-4,5.8-8.2,6.5
		c1.7-3.1,4.9-6.9,7.7-9.8C21.7,89.4,17.6,98.1,13.3,99.9z"/>
	<path fill-rule="evenodd" clip-rule="evenodd" fill="#CA6C38" d="M19.6,106.4c2.5-0.9,3.4-4.2,6-4.5c1.6-0.2,3.4,1.1,4.6,2.5
		c1.8,2.1,0.2,4.3-2.3,5.5c-1.6,0.7-4.1-2.2-1.6-1.3c0.8,0.3,2.3-1.4,1.7-3.2c-0.2-0.5-1.5-1.1-2.1-1
		C24.4,104.7,21.6,106,19.6,106.4z"/>
	<path fill-rule="evenodd" clip-rule="evenodd" fill="#883931" d="M57.6,95.9c5.3,2.9,15.1,3.4,21.2,1c5.1-2,10.1-3.9,11.7-9.5
		c0.4-1.4,3-12.8,0.2-12.4c-6.8,0.9-6.9,5.5-9.9,10.1C76.9,90.7,64.9,95.9,57.6,95.9z"/>
	<path fill-rule="evenodd" clip-rule="evenodd" fill="#AF4F33" d="M76.2,19.3c1.7,2,5.2,7.8,5.2,10.5c-0.1,5.4-1.6,13.7,4.1,5.9
		c0.8-1.1-0.2-2-0.1-3.5c-1.3-7.9-5.5-13.9-9.3-19.6C75.7,14.9,75.8,17.1,76.2,19.3L76.2,19.3z M81.9,18c-1.4-2.4-2.8-4.7-3.7-7.1
		l0.1,0.1l0.1,0.2c0.4,0.8,0.9,1.6,1.4,2.4C80.5,14.9,81.2,16.4,81.9,18z"/>
	<path fill-rule="evenodd" clip-rule="evenodd" d="M194.5,262.8c-5.4-6.3-10.5-11.7-17-19c-3.7-4.1-10.2-13.3-7.2-18
		C174.7,241.6,188.9,248.9,194.5,262.8z"/>
	<path fill-rule="evenodd" clip-rule="evenodd" fill="#AF4F33" d="M396.2,325.3c1.2,0.3,2.1,1.9,2.6,5.7c2.2,16.9-7.1,29.5-7.1,45
		c0,4-2.2,12.2-5.8,19.6c-4,0.2-8.2-0.6-11.5-2.5c1.5-4.2,6.1-6.7,8.2-10.8c1.3-2.7,4.2-7.9,4.3-10.3c0-1.1-0.9-1.7-1-2.9
		c-0.5-5,5.1-11.8,6.5-17.3C394.5,343.9,396.4,334.6,396.2,325.3z"/>
	<path fill-rule="evenodd" clip-rule="evenodd" fill="#883931" d="M103,67.8c-0.7,16,1,24.7,4.9,39.9c2.4,9.3,6.9,27.6,6.7,41.3
		c-4.4-12.6-7.9-25.8-11.6-38.3c-0.8-5-7.3-8-7.7-13.2c-0.3-4.2,3.3-10.5,4.3-15.1c1.2-5.5,0.6-12.5,1.9-17.5
		c0.4-1.4,2.1-2.6,2.2-4.1c0.3-7-3-15.9-2.9-24c3,1.2,5.3,3.1,8.4,4.3c10.7,5.7,9.7,23.1,19.9,29.3c-0.2-1.3-0.9-3-1.2-4.6
		c3.2,3.7,5.8,9.8,6.7,16.2c-5-8-15.8-17.7-21.5-21.9C107.1,55.5,106.5,57.3,103,67.8z"/>
	<path fill-rule="evenodd" clip-rule="evenodd" fill="#883931" d="M137.6,91.5c5.8,13,45.1,29.1,45.1,65.3c0,12.2,5-7.5,11.7-4.9
		c1.3,0.5,2.4,0.9,3.4,1.4c-2.6-5.6-6.2-10.3-9.9-14.7c0.4,4.7,4.9,7.8,4.6,11.8c-5.2-6.9-9.9-14.2-13.4-22.6
		c-1.8-4.2-2.6-9.3-5-13.2c-6.4-10.3-19.2-12.8-27.1-21.6c-0.6,4.6,4.6,5.9,3.6,9.4c-6.2-2.5-9-9.6-11.5-14.9
		C138.7,88.5,138.2,90,137.6,91.5L137.6,91.5z M204.1,155.7c3.3,1.1,6.7,1.8,12.3,1.7c3.5-0.1,11.5-1.9,18.9-4.2
		c-1.6-0.2-3.4-0.4-5.3-0.3c-9.8,0.5-18.1-3.1-26.2-6.5C204.3,149.4,204.4,152.6,204.1,155.7z"/>
	<path fill-rule="evenodd" clip-rule="evenodd" fill="#883931" d="M222.8,244.1c4.6-12.6,8.5-12.9,13.6-0.5
		c11.4,27.3,59.5,17.7,81.6,9.4c7.7-2.8,15.5-4.2,23.8-4.2c9.6,0-9.7-8-10.2-8.3c-5.6-3.5,11.5-3.1,12.5-3
		c10.6,0.6,32.1,10.6,36.7,20.4c0.2,0.4,0.4,0.9,0.5,1.3c-4-3.8-8.3-7.6-12.2-10.6c-3.4-2.6-9.3-5.4-13.7-6c-1.3-0.2-4.4-1.1-5,1.7
		c8.4,1.2,15.9,3.4,20.2,9.4c-3.6,0.6-6.7,3.7-11.5,3.4c-2.9-0.2-6.1-2.3-10.6-1.7c-5.5,0.7-11.7,5.6-16.8,8.6
		c-17.5,10.6-46.4,12.1-71.5,8.2c-14-2.2-25.3-8.9-40.3-11C220.3,255.9,223.3,251.2,222.8,244.1L222.8,244.1z"/>
	<path fill-rule="evenodd" clip-rule="evenodd" fill="#622A2A" d="M209.7,298.1c9,5.5,6.8,15.1,9.8,33.6c5.7,34.5,8.6,41.5,0.9,47.1
		c-6.1,4.4-6.6,12.2-7.7,19.3c1-0.2,1.9-0.4,2.9-0.6c2.7-7.3,4.8-15.8,10.6-20.4c1.5-1.2,3.2-1.4,4.1-2.9c3.1-4.9-1.2-10.4-2.2-14.2
		c-0.5-1.9-0.2-4.3-0.5-6.7c-0.6-6.3-2.2-14.4-2.6-20.6c-0.3-3.9-0.7-9.2,0-11.8c0.7-2.5,3.7-5.9,2.9-9.8c-0.6-3.1-3.3-6.1-3.8-9.8
		c-1.7-11,1.4-25-0.5-36.7c-1.5-0.4-3.4-0.5-5-0.7c-3.3,5.7-7.1,11.3-7.4,18.5C210.8,287.2,210.2,292.7,209.7,298.1z"/>
	<path fill-rule="evenodd" clip-rule="evenodd" fill="#9D937B" d="M430.5,176c-2-4.3-2.6-8.9-3-13.8c0.4,0.3,0.8,0.5,1.3,0.8
		c2.9,1.7,6.7,2.4,9.8,4.8c15.2,11.9,27.9,40.5,29.8,65.8c1.8,25.6,3.6,47,2.4,73c-0.4-8.9-1.7-17.7-3.6-25.4
		c-0.1,33,4.2,68.5-4.8,98.4c-0.1-13,0.7-26.6-1.7-39.4c-2,9,0.1,20.7-3.1,29.3c-0.3-21.1,0.1-46.7-1.7-68.9c0.1-1-1-0.7-1.4-1.2
		c-0.5-2.9,0.3-7.2-1-9.4c-0.5,17.4-0.7,43.6-2.6,59.8c0-6-2.8-13.7-3.5-20.6l0.7-7.3c1.3-4.9,3.4-9.9,1.9-15.1
		c-0.8-2.7-3.1-3.7-5-6.2c-0.8-1-1.6-2.2-2.5-3.7l-3.7-7c-0.5-1.1-1-2.2-1.4-3.4l-2-9c-0.5-12,1.1-23.1-0.9-34.9
		c-0.3-2-1.7-3.9-1.9-6c-0.1-0.8-0.2-1.6-0.2-2.4l1.2-11.4c1.1-5.8,2.4-11.8,1.8-17.9C434.5,195.5,435.4,182.8,430.5,176z"/>
	<path fill-rule="evenodd" clip-rule="evenodd" fill="#63574D" d="M433.3,182.6c11.9,11.4,9.6,54.6,9.6,72.6l-1.4,13.8l0.5,10.4
		l1.4,10l0.5-17.6c2.2-19.1,4.3-35.5,2.8-54.6c3.4,11.5,5.8,25.5,3.8,37.5c-0.5,2.8-1.4,8.1-1.4,8.1c3.1-12.1,7.1-26.2,7.1-38.9
		c0-18-5.3-30.8-8.5-46.5c10.9,14.2,19.1,36.2,20.6,56.2c1.8,25.6,3.6,47,2.4,73c-0.4-8.9-1.7-17.7-3.6-25.4
		c-0.1,33,4.2,68.5-4.8,98.4c-0.1-13,0.7-26.6-1.7-39.4c-2,9,0.1,20.7-3.1,29.3c-0.3-21.1,0.1-46.7-1.7-68.9c0.1-1-1-0.7-1.4-1.2
		c-0.5-2.9,0.3-7.2-1-9.4c-0.5,17.4-0.7,43.6-2.6,59.8c0-6-2.8-13.7-3.5-20.6l0.7-7.3c1.3-4.9,3.4-9.9,1.9-15.1
		c-0.8-2.7-3.1-3.7-5-6.2c-0.8-1-1.6-2.2-2.5-3.7l-3.7-7c-0.5-1.1-1-2.2-1.4-3.4l-2-9c-0.5-12,1.1-23.1-0.9-34.9
		c-0.3-2-1.7-3.9-1.9-6c-0.1-0.8-0.2-1.6-0.2-2.4l1.2-11.4c1.1-5.8,2.4-11.8,1.8-17.9C434.7,198,435,189.4,433.3,182.6z"/>
	<path fill-rule="evenodd" clip-rule="evenodd" fill="#9D937B" d="M458.9,202.8l3.8,10.7l3.1,18.5c0,0,1.6,10.1,1.6,12.6
		c0,2.5-0.3,15.4-0.3,17.3c0,1.9,0.6,10.4,0.6,10.4l1.6,6.6l-3.8-7.9l-0.9-9.1l-0.9-12.3v-15.7l-0.9-13.2l-3.5-16.3L458.9,202.8z"/>
	<path fill-rule="evenodd" clip-rule="evenodd" fill="#9D937B" d="M461.4,233.9l0.6,18.5l-0.9,15.7c0,0,0.6,9.7,0.6,14.1
		c0,4.4,1.3,12.6,1.3,15.4c0,2.8,1.3,9.7,0.9,12.6c-0.3,2.8-2.2,17.6-2.2,17.6l-0.3-18.2l-2.5-16.7l-1.3-13.5l-0.9-14.1l1.3-10.7
		L461.4,233.9z"/>
	<path fill-rule="evenodd" clip-rule="evenodd" fill="#D18152" d="M371.5,221.9c2.7,1.1-8-26.2-5.4-39.8c1.9-9.5,12.3-27.5,0.5-31.2
		c-5.7-1.8-13.5-2.4-16.6,1.8c-4.9,6.8-7.4,25.4-0.5,39C355.3,202.9,365.1,219.4,371.5,221.9z"/>
	<path fill-rule="evenodd" clip-rule="evenodd" fill="#D18152" d="M117.3,103.8c5.4,16.1,8.6,33.3,12.6,49.5c1,4,3,14.2,6.9,14.6
		c5.7,0.6,8.9,17.3,9.7,21.8c1.5,8-0.5,7.9,2.6-1.1c2.7-7.9,8.6-24.1,2.3-31.5c-11.1-13-20.7-21.1-25.5-38.9
		C125,115.1,120.5,104.6,117.3,103.8z"/>
	<path fill-rule="evenodd" clip-rule="evenodd" fill="#D18152" d="M164.6,193.3c6.3-12.4,10.7-15.4,25.8-23.8
		c7.4-4.1,30.1-4.4,27.8,1.6c-1,2.6-20.8,9.8-24.3,12.3c-12.1,8.4-9.5,24.7-20,34.9c-4.5,4.3-7.2-1.6-9-8.3
		C163,203,161.4,199.6,164.6,193.3z"/>
	<path fill-rule="evenodd" clip-rule="evenodd" fill="#E89F71" d="M24.3,76.1c7.8-3.9,13.1-8.5,18.6-14.6c2.2-2.4,3.8-3.8,5-5.4
		c0.1-2.4,1.1-4.6,1.4-6.9c-8,8.2-17.5,16.9-26.4,25C23.3,74.8,23.8,75.5,24.3,76.1z"/>
	<path fill-rule="evenodd" clip-rule="evenodd" fill="#63574D" d="M116.1,29.5c-0.2,0.7-0.9,0.8-2.3-0.3c-0.9-0.7-5.6-6.5-11.3-9.5
		c-7.3-3.9-15.9-4.8-14.3-1.5c0.9,1.9,2.9,3.3,3.4,5.2c-2.2-3-5.8-4.7-7-8.7C99.6,12.7,108.6,20.3,116.1,29.5z"/>
	<path fill-rule="evenodd" clip-rule="evenodd" fill="#63574D" d="M67.3,16.1c-0.2,0.1-0.4,0.3-0.6,0.4c-1.2,0.9,11.6-1.7,3.9,4.2
		c-2.4,1.9-3.8,3.4-5.3,6c-0.3,0.6,7-1.4,9.2-0.5c2.5,1,1.1,4.4,1.2,7c0.8-1,1.6-2,2.4-3c-3.4-3.5-3.6-9.8-3.6-15.8
		c-1.4,0.1-2.1,0.8-3.4,1.2C69.9,15.9,68.6,16.1,67.3,16.1z"/>
	<path fill-rule="evenodd" clip-rule="evenodd" fill="#63574D" d="M109.5,22.5c0.6,1.1,1.5,2.5,2.5,4.4c4.3,7.8,11.5,12.4,14.4,22.4
		c0.6,1.9,2.3,12,2.5,4.6c0.1-2.5,0-5.4-0.3-8.2C122.3,38.6,116.9,29.2,109.5,22.5L109.5,22.5z M128.5,44.7
		c-3.5-6.1-7.6-12.9-12.2-18.3c5.3,2.4,9.6,5.6,13.2,9.7c-3.3-3.1-5.6-4.3-2.5,2.7C127.7,40.6,128.2,42.6,128.5,44.7L128.5,44.7z
		 M136.3,44c0.1,0.2,0.3,0.4,0.4,0.5c3.4,4.9,3,12.3,3,18c0,6.2,0.9,12.9,0.9,2.3c0-5.8,0.7-12.5,0.5-19
		C139.6,45.1,138,44.5,136.3,44z"/>
	<path fill-rule="evenodd" clip-rule="evenodd" fill="#63574D" d="M139.9,46.1c18.3,7.1,24,32.6,30.3,49.1c3.9,10.1,3.1,3.2,2.3-3.2
		c-0.2-1.8-0.3-3.6-0.3-5.3c-1.1-1-2.3-2.1-3.4-3.1c0.5,0.6,1.2,2.2,0.5,3.1c-5.9-17.4-12.6-34.1-28.9-41.2
		C140.2,45.7,140.1,45.9,139.9,46.1z"/>
	<path fill-rule="evenodd" clip-rule="evenodd" fill="#63574D" d="M172.1,87.7c13.6,10,14.6,22.9,19.6,37c0.7,1.9,5.3,12.4,6.4,13.2
		c3.5,2.8-6.9-22.1,0.7-10.7c3.9,5.8,8,13.4,14.8,16.2c1.6,0.6,12.2,4.2,7.3,4.1c-6.7-0.2-21.4-11.5-21.4-7.5
		c0,7.5,0.8,9.1-1.3,10.4c1.6,3,2.9,6.3,3.7,10c3.2-6.2-0.8-14.2,0-19.4c5.7,6.5,17.4,10.7,28.6,9.4c-6.7-2-11.4-7.3-16.8-9.8
		c-4.4-5.2-5.8-11.5-10.1-16.3c-3.5-4.1-9.2-5.9-12.5-9.8c-3.5-4.2-4.7-10.8-7.7-15.4c-3.2-4.9-7.2-8.6-11.3-12.2L172.1,87.7z"/>
	<path fill-rule="evenodd" clip-rule="evenodd" fill="#C9C5AE" d="M188.5,114.1c2.2,10.6,9.4,17.8,9.4,28.3c0,0.3,0.7-4.1,0.8-6
		c0.1-5.2-0.6-9-3.5-13.4C192.8,119.1,189.8,118.5,188.5,114.1z"/>
	<path fill-rule="evenodd" clip-rule="evenodd" fill="#C9C5AE" d="M194.8,118.4c3,2.5,6.4,4.2,8.4,7.8c2.5,4.4,1.5,9.5,5.6,13
		c2.3,2,2.2,2-1,0.6c-4.9-2.2-6.8-8.3-8.4-13.2c-0.5-1.6-0.7-3.7-1.6-5.1C197.2,120.3,195.9,119.6,194.8,118.4z"/>
</svg>
