<svg viewBox="0 0 331.698 303.825" xmlns="http://www.w3.org/2000/svg" preserveAspectRatio="xMidYMax">
 <g>
  <title>Layer 1</title>
  <path d="m62.973862,303.158356c0.10619,-3.25061 3.273193,-9.362579 7.495438,-13.759186c4.222221,-4.395386 7.176857,-18.14859 7.916191,-26.942963c0.346428,-4.078308 1.023361,-8.435226 1.218483,-12.114655c10.0784,-2.54306 3.240005,-1.578476 -0.096893,-2.016922c0.042473,-1.404282 -0.212372,-6.567261 -0.909241,-9.285721c-0.503052,-1.956833 -2.294937,-6.16124 -1.708252,-8.693481c3.681999,-0.438461 3.489548,-1.841522 -1.314056,-1.332214c-0.720741,-1.864334 -1.538368,-3.650604 -2.571037,-5.552185c-2.641396,-4.874695 -1.166718,-3.535309 0.419426,-4.013397c1.587479,-0.475708 4.960228,-4.302902 0,-2.389297s-3.591736,0 -4.645645,-1.52919s-2.008255,-2.290802 -2.322823,-3.436813s1.056549,-2.104599 1.902054,-2.389297c0.844185,-0.284683 1.372459,-2.867386 -0.739311,-2.007294c-2.110474,0.861298 -3.062149,-0.767609 -3.695293,-3.250595c-0.633129,-2.481796 -2.42902,-6.58287 -3.90633,-8.210602c-1.477322,-1.627686 -4.328415,-6.025482 0.950375,-10.036484c5.278774,-4.013412 3.376705,-10.311584 2.743591,-12.131485c-0.633141,-1.821091 -1.68705,-4.396591 -2.849781,-5.542587c-1.162746,-1.144806 -2.610867,-3.421173 -2.110443,-3.7323s3.794827,2.581497 2.341396,-1.18924c5.524342,-6.40271 -2.641396,0.461273 -2.811275,0.175369c-0.311924,-0.526138 -0.617207,-0.965805 0.04911,-1.568848c1.053886,-0.953781 2.953297,-1.622894 4.116043,-3.628983c1.162731,-2.006104 2.852432,-3.628998 3.591751,-6.687393c0.739326,-3.059586 2.004272,-3.821198 2.848434,-6.210495c0.845512,-2.390503 0.52961,-3.245789 2.32283,-3.152084c1.794563,0.092484 3.376732,-1.436722 1.266281,-2.105804c0,0 -2.110443,0.104523 -1.37114,-2.669189c0.739342,-2.774918 0.633148,-3.628998 0.419441,-5.065704c-0.211044,-1.435501 -0.416779,-4.302902 0.529594,-4.111893c0.949066,0.1922 3.695305,0.383209 0.739334,-1.622894c-2.958618,-2.006104 -1.16275,-1.819908 -1.268929,-2.389305c-0.104851,-0.570602 -0.314583,-0.575401 -1.264931,-0.953804c-0.951714,-0.380798 -0.318581,-3.532883 1.899399,-1.815094c2.216637,1.719002 2.961273,1.907593 4.542122,1.815094c1.580833,-0.096092 3.797478,-1.913597 0.842842,-2.390503c-2.957283,-0.476883 -3.270515,-0.66909 -3.270515,-1.145996s-1.16674,-1.430687 -2.114449,-1.049889c-0.949051,0.380806 -1.908691,-2.384491 0.63578,-1.338196c1.157448,0.476883 1.266281,-0.188614 1.478668,-0.669106c0.211037,-0.479301 2.004257,-0.761597 2.216629,0.096107c0.211044,0.857697 0.52562,1.23848 0.739304,2.099792c0.211052,0.8601 1.053917,1.33699 2.005608,0.956184c0.950371,-0.380775 2.325478,-0.860085 1.162743,-2.102196s-0.958336,-0.192192 -1.798546,-0.76519c-0.842842,-0.573006 -0.526932,-1.145988 -0.103508,-1.813889c0.424728,-0.669106 0.00663,-1.43071 0.424728,-3.152107c0.416771,-1.721397 0.635803,-4.012192 -0.212372,-4.873482c-0.84816,-0.86132 -0.212357,-3.725113 1.053902,-3.440399s3.277168,1.907593 2.32682,1.718994c-0.951714,-0.188614 -1.798546,1.531593 -0.84951,1.817497c0.951706,0.284706 3.066154,0.857689 3.804146,0.284706s1.361839,-1.813911 0.205734,-2.867409c-1.157448,-1.052292 -0.951714,-2.866203 -0.314583,-3.631393c0.635765,-0.765213 1.586143,-0.956207 2.64006,0.0961c1.053879,1.052292 2.320168,0.761581 2.320168,1.909996s1.264946,2.104599 1.68837,0.288307c0.424728,-1.817497 0.849487,-2.771309 1.375099,-3.440414c0.526955,-0.66909 1.266273,-2.771286 2.531219,-2.771286c1.266266,0 0.635803,-0.665497 0.635803,-2.483002s1.375099,-2.861397 2.216637,-4.009789c0.84285,-1.148399 1.053886,-2.962296 1.368462,-4.204391s1.375114,-1.910004 2.641388,-2.102203c1.264938,-0.192207 1.895424,0.575401 0.630486,1.529198c-1.266273,0.953796 -1.793221,1.912399 -0.630486,3.439186s1.16275,3.535301 0.525612,4.681297c-0.635773,1.146004 -3.591736,3.823616 -1.477295,4.012215c2.114433,0.189781 1.896744,1.62529 0.842842,3.344284s-2.320175,4.012192 -1.580849,6.591293s0.745956,3.535294 1.902061,4.108292c1.157425,0.573006 0.314575,0.665497 1.266266,-0.192207c0.951721,-0.857681 1.470688,-1.526787 2.107796,0.479309c0.635803,2.006096 -0.102188,1.526787 1.586174,0.857704c1.689674,-0.669106 1.684372,-1.619308 1.794548,-2.8638c0.108849,-1.244499 1.264931,-1.529198 1.902069,-2.771286s0.635773,-1.910011 0.951683,-2.867409c0.313248,-0.956215 1.688362,-1.049896 2.004257,1.337006s0.212379,3.340683 1.689705,3.152084s1.259613,-0.761604 1.580841,-0.953789c0.319878,-0.192207 0.630493,0.188599 1.264946,0.857689c0.635803,0.669106 1.067177,1.146011 1.272903,0c0.204407,-1.145988 -0.958321,-1.719002 -2.012238,-2.388092c-1.053886,-0.669106 -1.684364,-1.240906 -1.368454,-2.675201s0.739311,-1.625298 0,-2.867386s-1.053902,-0.953804 -1.477325,-1.813911c-0.423424,-0.861298 -0.423424,-2.104599 -0.423424,-3.823601s-1.157417,-3.532883 0.108849,-3.62899c1.266258,-0.0961 2.107796,0.860107 2.320175,2.675201c0.211037,1.813896 0.841522,2.290802 0.841522,3.725098s0.321205,6.594887 1.375092,6.594887s1.684395,-1.340599 1.579536,-3.058388c-0.102203,-1.718994 -0.841522,-2.675209 -0.630493,-4.681297c0.212379,-2.006096 0.110191,-3.919701 -1.793221,-6.306595c-1.902054,-2.386902 -3.802773,-4.390587 -3.802773,-6.304192c0,-1.912407 -1.266281,-5.064499 0.423409,-6.975693s2.955956,-4.681297 4.960228,-1.910004s1.902061,1.62291 2.64006,2.290802s1.68969,1.622894 1.477303,2.771294c-0.211044,1.148407 -0.525612,2.104607 0.526955,2.485397c1.053917,0.380806 2.325478,1.145996 2.114433,-0.288307c-0.212364,-1.433083 -0.212364,-1.148392 -0.635788,-2.294388s0,-1.433098 -0.950371,-1.813896c-0.951683,-0.380806 -0.842842,-2.292 0.84816,-1.049904c1.688377,1.242104 1.477318,1.047501 2.743599,2.099792c1.264954,1.052299 6.019455,0.099709 3.167023,-0.953796c-2.85112,-1.052299 -2.325485,-1.62529 -2.325485,-2.294395s-0.525635,-0.383202 -2.531242,-0.765198c-2.005569,-0.380798 -2.96125,-0.1922 -3.591743,-1.242104c-0.630478,-1.049896 -0.314568,-1.817505 -1.580841,-1.529205c-1.264938,0.288315 -0.21106,-1.524384 1.053886,-2.099785c1.266289,-0.575401 2.217972,-1.338211 4.120041,-0.9562c1.902061,0.380798 2.640068,-0.479294 4.645653,-0.1922c2.0056,0.287102 2.738281,0.002396 3.79747,-1.049896s2.332123,-0.9562 0.319916,-2.102203c-2.01091,-1.145996 -0.848175,-1.148399 -0.848175,-1.529198c0,-0.380806 -0.416779,-0.1922 -2.107803,0.096107s-0.745941,1.62529 -3.064804,-0.669106c-2.320175,-2.294407 -2.64138,-2.963501 -3.380707,-4.969597c-0.739304,-2.006096 -2.320175,-5.82729 0.951698,-8.025593c3.270546,-2.198299 4.639015,-3.248199 5.48716,-4.204395c0.849503,-0.956196 1.689713,-2.102196 0.212387,-2.867397s0.526947,-2.1022 2.955978,-1.336998c2.429001,0.764 2.743591,0.383202 4.009857,0.287098c1.264938,-0.096104 1.271561,0.383202 1.059204,-1.242096c-0.211044,-1.625305 0.734009,-3.343098 4.325775,-0.192204c3.591751,3.1521 4.96022,2.006092 6.438873,2.675205s3.804123,1.524391 4.754486,2.863785c0.951691,1.340607 4.113403,1.721397 6.651245,0.479305s6.554337,-0.476906 9.400131,1.433098c2.84845,1.909992 3.052856,2.384495 3.374069,4.965988s2.223282,4.300499 7.395889,4.108299c5.17128,-0.1922 5.808395,-0.099701 7.813965,2.386898c2.004303,2.485397 5.276154,1.912395 6.86232,2.198303s4.123993,1.62529 5.917206,2.102196c1.794571,0.476891 2.743607,1.526794 3.797516,0.857697s1.903366,-0.669106 2.852402,-0.476906c0.951721,0.192207 2.53125,1.244499 1.368484,1.721413s-0.31456,1.62529 1.375092,1.338188c1.689713,-0.288307 2.005615,-0.9562 1.793243,1.145996c-0.211044,2.102203 -0.09024,1.148399 0.326523,2.485397c0.418121,1.338203 0.521652,1.62291 1.896729,3.152092c1.375137,1.529205 1.580856,1.62291 2.743607,3.344307c1.16275,1.721397 2.01088,3.725098 -0.103531,4.108299c-2.113129,0.383202 -2.427689,0.380791 -3.166992,2.102188c-0.740646,1.721405 -2.005615,2.195908 -2.957306,2.959892c-0.950333,0.765205 -0.52562,2.675201 2.641388,4.969597c3.167007,2.294411 5.384995,4.110703 7.176865,5.637512s2.21666,7.260376 2.531235,9.935577c0.31456,2.675201 0.84285,4.963593 -0.951721,6.877182c-1.537018,1.644524 -1.059189,3.77916 -0.35701,4.835068c0.115433,0.172974 0.236237,0.315926 0.35701,0.422844c-6.692383,3.462006 -1.847626,2.322029 1.060562,3.198936c0.532242,1.446312 1.679031,3.304649 1.477325,4.253654c-0.423416,2.006088 -1.902084,3.821182 -2.113129,3.821182c-2.083923,-0.006012 -2.005585,1.144806 -2.005585,2.867401c0,0.953812 -1.266281,1.813904 -1.689697,0.860107s-0.314575,-2.383286 -1.053909,-2.483002c-0.739334,-0.098495 0.321243,-0.767593 -0.739334,-0.098495s-2.005585,0.284683 -1.689636,2.676392c0.31456,2.389313 -1.902084,3.722687 -1.68837,6.495193c0.211014,2.773697 1.797195,7.164291 -2.532593,9.554794c0,0 -2.852402,0.5802 -3.80278,3.156906c-0.951706,2.577881 -2.525879,0.279877 -4.536804,1.524399c-2.012222,1.244492 -5.500473,2.198288 -5.706207,5.065674s-1.162704,2.965897 -1.266251,4.302902c-0.102188,1.337021 0.321243,4.973206 -0.630478,6.211716c-0.950363,1.23848 0.103531,4.676468 2.005569,6.587677c1.902084,1.913589 3.906372,4.501083 5.172623,4.308899c1.264938,-0.19101 4.427948,-2.006088 5.487167,-0.383194c1.060547,1.622894 1.272934,1.913605 1.798538,2.867386c0.526962,0.953812 1.575516,-0.186188 2.422363,-1.430679c0.848175,-1.243317 2.223282,-2.301605 3.175003,-4.209213c0.950333,-1.907593 2.63472,-2.577896 3.79747,-2.76889c1.162766,-0.192215 2.955963,-3.633789 4.118713,-6.025497c1.162766,-2.389313 2.32016,-6.21051 3.380692,-6.593719c1.059235,-0.383194 1.477325,-2.768875 1.902084,-3.821182s1.156067,-0.284698 1.793213,-1.145981c0.635803,-0.860107 0.745956,-2.680023 2.012207,-2.965897c1.264954,-0.284714 3.058182,-0.086502 4.220932,-0.377228c1.164032,-0.29068 1.478638,-2.204285 1.903366,-2.296783s4.222244,0.197006 4.960236,-2.384476s10.986328,-5.158203 17.111938,3.535278c6.122986,8.693497 6.116333,9.264084 6.753448,11.462402c0.635742,2.198273 0.950317,8.885666 2.11441,11.560867c1.16275,2.676407 5.500488,10.903793 6.129639,18.451309c0.630432,7.548676 2.422333,6.682571 2.847107,8.979385s0.525604,0.669083 -0.212402,1.627701s0.642456,1.815094 1.798553,1.52919c1.15741,-0.284698 0.836243,2.675201 0.945068,3.535309c0.108856,0.860077 1.483917,2.679993 2.750244,3.441589c1.264923,0.762802 0.834839,4.873505 -0.321228,6.019485c-1.15744,1.146011 -1.150818,4.972015 -0.945099,8.025589s0.841553,8.1241 0.102234,9.938019s-0.416809,4.967178 -1.793213,5.350372s-2.633453,-0.378387 -3.270569,-1.907593c-0.635773,-1.52919 -5.603973,-2.384491 -6.444153,-1.338196c-0.842865,1.047501 -7.389282,3.1521 -4.749176,4.774994c2.641388,1.624084 0.849457,2.965897 -0.841522,4.111893s-2.114441,0.575409 -1.9021,3.728714c0.21106,3.1521 0.307983,2.9599 0.630493,4.680084c0.319885,1.721405 -1.587463,3.919708 -5.495148,6.117981s-8.02504,1.627716 -8.551987,7.263977c-0.525604,5.633911 1.957825,10.470154 -0.562759,11.610168c-2.780746,1.261322 -2.077286,2.916656 -2.077286,3.870483s-0.526947,2.965881 -1.477325,3.250549c-0.951706,0.284729 -1.580856,2.768921 -1.368469,3.15213c0.211044,0.383179 -1.689682,0.663086 -2.641357,0.761566c-0.950378,0.098511 -0.957047,-0.28949 -2.010941,2.006134c-1.053879,2.296783 -1.271545,2.38446 -1.477295,3.535278c-0.205719,1.151978 0.115479,0.954987 -0.945053,1.722595s-0.212387,0.575409 -0.212387,0.575409l-177.599258,0.093689z" fill="#007fff" id="path1414"/>
 </g>
</svg>
