<?xml version="1.0"?><svg width="331.698" height="303.825" xmlns="http://www.w3.org/2000/svg">
 <title>Michigan Upper Peninsula</title>
 <g>
  <title>Layer 1</title>
  <path d="m-75.689804,113.759003c5.518105,-4.988998 12.648205,-5.953003 21.942406,-7.438995c9.296097,-1.486008 12.268097,-5.574005 15.990799,-9.296005c3.720703,-3.721008 12.272003,-11.902008 21.197502,-8.555008c8.926094,3.346008 19.711098,-0.744995 23.058098,-3.347c3.346001,-2.60099 8.920006,-3.345993 11.527,-7.809998c2.606995,-4.461998 4.087006,-4.466995 8.925003,-4.092995s8.925995,-3.346001 9.67099,-6.693001c0.74501,-3.346001 3.346008,-7.058998 6.695007,-8.551003c3.345993,-1.491997 5.582993,-3.346397 7.438995,-6.324097c1.85701,-2.9758 5.205002,-3.722603 7.065002,-4.093201s4.839005,-2.227104 9.671005,-7.4338c4.832001,-5.208702 7.804001,-9.666702 13.757996,-10.0411s6.320007,-1.489799 8.925003,-3.720703c2.608002,-2.230896 9.300003,-4.4618 18.595993,-3.716896c9.296997,0.744896 4.458008,0.003799 9.296997,0.744896c4.836014,0.741104 4.465012,5.944 -0.740997,6.318405c-5.209,0.374298 -5.578003,1.486 -9.67099,1.115395c0.370987,2.975899 -1.115005,4.461899 -4.462006,6.692802c-3.345993,2.230896 -7.065002,4.087402 -9.296005,6.694603c-2.230988,2.605293 -1.48999,3.720795 -4.093002,4.091293c-2.60199,0.370605 -4.092987,1.486 -4.46199,4.834305c-0.371002,3.3461 -0.744995,1.856499 -2.231003,3.3461c-1.485992,1.491997 -0.740997,1.486 -1.485992,4.461998c-0.74501,2.977997 -1.486008,0.375 -3.346008,1.862c-1.860992,1.486 -1.490005,5.573997 -1.860992,7.064003s-1.486008,1.865997 -4.832001,2.606995c-0.74501,4.832001 -1.490005,7.063004 -2.605011,9.296005c-1.115997,2.231003 -1.862991,4.457993 -1.115997,8.181c0.744995,3.720001 0.375,3.345993 -0.369995,5.207993s0.740997,3.71701 2.600998,1.486008c1.860992,-2.231003 1.115997,-4.832001 3.347,-7.063004c2.229996,-2.231003 5.953003,-4.089005 7.438995,-7.064995c1.486008,-2.978004 5.203003,-2.605003 7.065002,-5.209007c1.861008,-2.600998 7.069,-1.486 2.975998,1.116005c-4.091003,2.600998 -3.716995,3.341995 -5.576996,3.716995s-0.740997,1.115005 -1.486008,3.346001c-0.744995,2.231003 -2.606995,1.486008 -0.744995,2.231003c1.860001,0.744995 1.490005,0.744995 2.975998,-0.371002c1.486008,-1.115005 0.740997,0.375 1.486008,-2.600998c0.744995,-2.975998 0.369995,-2.972 3.345993,-3.347c2.977997,-0.374001 7.440002,-0.740997 12.272003,0c4.832001,0.741997 2.972,1.112 4.832001,0.741997c1.863007,-0.370995 1.856995,1.119003 0,3.722008c-1.856003,2.60199 -1.860001,5.209 0,3.347c1.863007,-1.861008 2.231003,0 2.977997,-2.975998c0.74501,-2.978004 -0.740997,-2.60701 0.74501,-2.978004c1.485992,-0.371002 1.112,-0.374001 1.856995,2.230995c0.746994,2.604996 2.231003,3.350006 2.231003,1.490005s-2.210007,-3.591003 -0.740997,-3.347c4.460999,0.740997 6.687988,-1.486 7.432999,2.231003c0.746994,3.716995 1.485992,5.57399 5.579987,5.202988s4.087006,0.751007 4.461014,4.838013s1.119995,2.230988 3.720993,4.46199c2.602005,2.231003 2.598007,1.115997 2.972,3.71701s-1.490005,3.342987 1.115997,3.716995c2.60701,0.373993 3.722,1.119003 5.207993,3.720993c1.486023,2.600998 3.347015,2.231003 3.347015,7.809998s6.324005,4.828003 7.809998,5.205002c1.485992,0.374008 5.947998,0.748001 8.179993,-0.740997c2.231018,-1.48999 4.83902,0 8.184998,-2.975998c3.346008,-2.977997 7.434021,-3.347 7.063019,1.115005s4.087982,3.720993 5.949982,4.093002c1.860016,0.370987 2.605011,0.744995 4.091003,0c1.485992,-0.744003 -0.003998,-0.003006 1.485992,-2.60701c1.490021,-2.600998 1.490021,-3.716995 3.723022,-1.485992c2.230988,2.231003 1.855988,2.231003 4.086975,3.347c2.231018,1.11499 3.721008,3.716995 4.838013,2.600998c1.115997,-1.115005 1.856995,-1.856003 2.972992,-4.832001c1.115021,-2.975998 2.972015,-4.833008 5.57901,-5.578003c2.605011,-0.744003 2.605011,-4.832001 5.208008,-4.832001c2.60199,0 4.093994,-1.115005 4.093994,-1.115005s0.143005,-1.050995 3.346008,-2.975998c1.855988,-1.115997 4.457977,-2.972 6.319977,-3.716995s2.605011,-1.490005 2.605011,-2.977997c0,-1.486008 2.972992,-2.600998 5.204987,-2.231003c2.231018,0.371002 8.821014,-0.179001 13.317017,-1.363998c4.497986,-1.186005 16.806,-0.710007 20.360992,-0.710007c3.557007,0 14.914001,0 22.496002,-5.44899c7.583008,-5.447998 11.610016,-5.682999 16.343018,-5.682999c4.734985,0 4.73999,0.945999 6.869995,-0.475006c2.125977,-1.421005 5.916992,-2.836998 3.074982,3.791c-2.839996,6.630005 -2.125977,17.994003 -1.890991,21.546997c0.234985,3.550995 2.839996,3.550995 3.312012,4.026001c0.470001,0.475998 10.667999,0.707001 11.843994,0.237c1.177002,-0.470993 -0.007019,1.901001 1.177002,2.371002c1.186005,0.470001 3.084991,0 6.164001,-1.421005c3.074982,-1.42099 4.967987,-4.972 7.572998,-4.737c2.606995,0.235001 4.505981,1.900009 4.505981,5.212006c0,3.311996 2.362,3.781998 5.919006,0.470001c3.556,-3.311996 2.369995,-1.652008 4.026001,-1.891006s0,-1.655991 1.186005,-3.315994c1.184998,-1.660004 3.075012,-1.180008 4.261993,-1.421005c1.184021,-0.238998 0.468994,-0.713989 1.419006,-2.369995c0.950989,-1.656006 1.194,-0.475998 2.13501,0s1.177002,1.660004 2.360992,3.080994c1.186005,1.421005 1.656006,2.835999 2.606995,4.496002c0.949005,1.662003 2.605011,5.209 3.790009,7.102997c1.186005,1.897003 0.940979,2.837006 0.705994,4.262009s2.380005,2.610992 3.084991,0.237991s1.881012,-1.189987 -0.243988,-3.791c-2.126007,-2.600998 -2.596008,-3.552994 -3.546997,-5.209c-0.950012,-1.655991 -1.664001,-2.841995 -1.899017,-4.263c-0.237,-1.42099 0,-0.469986 -1.655975,-2.130997c-1.656006,-1.660004 -2.598022,-1.42099 -2.126007,-3.315994c0.470001,-1.895004 1.664001,-0.707001 2.60498,-2.367004c0.940002,-1.660004 1.420013,-2.841995 4.734009,-1.421005c3.312012,1.421005 7.330017,0.707001 4.733002,4.733002c-2.596008,4.027008 -4.967987,6.399002 -2.126007,9.473999c2.84201,3.077011 4.505005,6.865005 3.791016,8.524002c-0.71402,1.662003 0.234985,3.553009 0.707001,4.737c0.470001,1.186005 0.242004,3.081009 -3.312012,3.31601c-3.557007,0.235001 -7.347992,4.026001 -3.557007,4.972c3.792023,0.944992 2.84201,0.950989 5.450012,0.709991s2.839996,3.55101 4.260986,3.55101s8.742004,-0.989014 2.840027,2.131989c-4.026001,2.131012 3.791992,6.393005 5.213013,7.103012c1.418945,0.710999 0.713989,1.655991 2.60498,2.366989c1.890991,0.710007 2.60498,-0.710999 4.026001,0.475006c1.419006,1.186005 1.898987,3.076996 0,4.261993c-1.900024,1.186005 0.469971,1.186005 -2.369995,0.475006c-2.842041,-0.710007 -3.087036,-4.026001 -4.260986,-0.710007c-1.177002,3.31601 -2.371033,2.605011 -4.262024,0.475006s-2.84201,-2.600998 -6.153992,-0.235001c-3.312012,2.367004 -4.506012,0.942001 -7.819,-0.238007c-3.312012,-1.182999 -4.262024,-0.475998 -5.920013,0.710007s-3.790985,0.951004 -2.839996,2.369995c0.949005,1.421997 3.554993,3.313004 1.18399,3.078003c-2.369995,-0.235001 -5.212006,0 -4.260986,-2.132004c0.950989,-2.131989 3.557007,-1.659988 1.42099,-4.026001c-2.134979,-2.366989 -3.556,-0.710999 -4.975006,0c-1.42099,0.710007 -5.204987,2.131012 -5.204987,-0.710999s-0.959015,-1.655991 -3.084991,-1.655991s-4.970001,2.127991 -4.970001,0.237s0.471985,-3.553009 -1.419006,-1.421005s-2.126007,1.182007 -1.890991,4.261002c0.234985,3.080994 -2.615021,3.315994 -1.900024,6.634003s0.949005,2.369995 0.71402,5.446991s-0.235016,2.84201 1.42099,2.84201s-0.234985,3.550995 -1.656006,3.076996c0,0 -5.212982,-0.003998 -6.164001,-1.895996c-0.948975,-1.891006 -3.789001,-4.02301 -4.026001,-4.733002c-0.234985,-0.710999 -0.478973,-0.945999 -2.60498,-1.421997c-2.126007,-0.475006 -2.136017,-0.949005 -3.075012,-2.37001c-0.941986,-1.42099 0.244019,-1.414993 -1.890991,-1.890991c-2.136017,-0.475006 -3.067993,-0.235001 -1.890991,-1.895004c1.175995,-1.660995 0.948975,-1.182007 2.839996,-0.710007s5.918976,-0.472 1.655975,-2.131989s-4.505981,0.710999 -7.347992,-0.475006c-2.84198,-1.186005 -4.977997,-0.237 -7.339996,-1.656006s-2.605988,-2.605988 -7.104004,-1.896988c-4.496002,0.710999 -7.113007,-0.949005 -9.475006,-2.605011c-2.360992,-1.655991 -8.279999,0 -10.415985,0.475006c-2.132996,0.475998 -4.975006,-0.705994 -7.817993,3.792007c-2.84201,4.495987 -5.438995,10.655991 -13.02002,9.944992c-7.584991,-0.710007 -6.164001,-0.944992 -9.720001,1.897003c-3.554993,2.839996 -8.531982,2.845993 -6.634003,-0.237c1.901001,-3.081009 1.901001,-4.261002 -2.125977,-3.31601s-1.184021,2.371002 -5.923004,2.608002c-4.737,0.234009 -3.080994,1.180008 -5.212006,1.889999c-2.131989,0.710999 -1.893005,0.003998 -3.787994,-0.470993c-1.89502,-0.475998 -1.186005,-0.235001 -2.131012,1.421005c-0.945984,1.655991 -1.894989,0.940994 -4.026978,1.890991c-2.131012,0.951004 -3.081024,3.081009 -3.31601,5.923004c-0.235992,2.841995 -0.471008,9.940994 -4.733002,10.179993s0,3.278 -7.102997,4.026001c-4.502014,0.475998 -3.076996,2.136002 -2.839996,2.371002c0.234985,0.237 -0.245026,1.891006 -1.427002,1.891006c-1.180023,0 -2.605011,1.424988 -2.132019,3.080994c0.476013,1.656006 -0.470001,2.841995 -1.890991,3.076996c-1.42099,0.235001 -1.42099,1.891006 -1.186005,3.787003c0.237,1.895004 1.186005,2.371017 -2.365997,-0.235001c-3.550995,-2.606995 -5.447998,-5.922989 -1.897003,-5.44899c3.553009,0.475998 2.367004,-0.942001 2.367004,-2.601013c0,-1.661987 2.104004,-2.37999 1.894012,-4.261993c-0.475006,-4.266998 7.104004,-0.716003 4.737,-4.501999c-1.744019,-2.787994 1.897003,-6.867996 2.84198,-8.289001c0.946014,-1.421005 -2.610992,-6.388992 -5.923004,-1.181s-6.632996,5.923004 -8.523987,4.261993c-4.365997,-3.835999 -6.15799,-4.889999 -5.919006,1.421005c0.237,6.154007 -0.945984,4.968002 -2.131989,6.628006c-1.186005,1.660995 -3.080994,3.311996 -2.605011,4.972992s-1.186005,1.186005 -4.260986,1.897003c-7.243011,1.673004 -3.287994,-0.070999 -4.498993,-4.498001c-0.238007,-3.791992 -2.051025,-6.994995 1.890991,-9.949005c1.897003,-1.421997 -0.475006,-12.550995 -3.315002,-4.973999c0,0 -2.131989,2.611008 -2.131989,5.212006c0,2.602005 -3.31601,1.182999 -2.840027,6.630005c0.475006,5.446991 -1.42099,7.347992 -4.501984,10.425003c-3.080994,3.076996 -7.338989,3.790985 -7.104004,8.054993s-4.502014,3.071014 -4.502014,8.993988c0,5.923004 -3.551971,7.109009 -3.551971,9.949005c0,2.84201 -2.60202,6.151001 -3.786011,8.286011c-1.186005,2.13501 -4.022003,4.971985 -4.261017,8.287994s-1.896973,5.919006 -4.026978,8.523987c-1.686005,2.063019 -7.093002,6.063019 -7.116013,11.928009c-0.003998,1.153992 -4.666992,1.925995 -5.578003,0.558014s-8.174988,-8.115997 -4.22699,-12.21701c3.94899,-4.100006 4.707001,-8.506989 5.011993,-12.001984s-2.278,-6.838013 -5.621002,-3.496002s-12.764999,4.556 -9.875,-3.64801c2.889999,-8.200989 7.444,-10.17099 2.737,-14.882996c-4.705994,-4.709991 -0.910995,-7.743011 0.153,-10.632996c1.064011,-2.890015 -3.752991,-13.131012 -11.046997,-13.131012s-7.779999,0.706009 -11.156998,-0.139999c-2.623993,-0.658997 -4.078003,-5.843994 -1.951996,-7.669998s2.513992,-17.912994 -11.156006,-15.479004c-13.67099,2.431 -29.552002,0.414001 -34.110001,-0.955002c-4.55899,-1.367996 -10.632996,1.978012 -14.886993,-2.884995c-4.253006,-4.862 -10.956009,-6.929001 -17.942001,-8.292999c-4.363007,-0.850006 -5.287003,-3.494995 -13.201004,-5.531006c-5.317001,-1.369995 -11.648994,-3.425003 -18.875,-6.184998c-10.598396,-4.044998 -13.247597,-1.533997 -15.617996,-3.903992c-3.800903,-3.80101 -9.343803,-3.764999 -12.969101,-4.741013c-4.8629,-1.311996 -14.926903,-1.781998 -12.2719,-8.227997c2.928101,-7.112991 -1.952099,-13.25 -4.045502,-13.946991c-3.103798,-1.034012 -5.5219,-0.942001 -11.295895,-3.068008c-5.7836,-2.117996 -5.944,-4.889999 -4.937408,-5.800995z" fill="#2fe0e0" id="path1390"/>
 </g>
</svg>