<svg xmlns="http://www.w3.org/2000/svg" xmlns:xlink="http://www.w3.org/1999/xlink" viewBox="0 0 50 50" preserveAspectRatio="xMidYMid">
    <defs>
        <g id="Print">
            <circle fill="currentColor" cx="43" cy="21" r="2"/>
            <path d="M40,15V1H10v14" fill="none" stroke="currentColor" stroke-linecap="round" stroke-miterlimit="10" stroke-width="3"/>
            <path d="M40,29v20H10V29H40z" fill="none" stroke="currentColor" stroke-linecap="round" stroke-miterlimit="10" stroke-width="3"/>
            <path d="M10,40H3  c-1.104,0-2-0.896-2-2V17c0-1.104,0.896-2,2-2h44c1.104,0,2,0.896,2,2v21c0,1.104-0.896,2-2,2h-7" fill="none" stroke="currentColor" stroke-linecap="round" stroke-miterlimit="10" stroke-width="3"/>
            <line fill="none" stroke="currentColor" stroke-linecap="round" stroke-miterlimit="10" stroke-width="2" x1="35" x2="15" y1="35" y2="35"/>
            <line fill="none" stroke="currentColor" stroke-linecap="round" stroke-miterlimit="10" stroke-width="2" x1="31" x2="15" y1="39" y2="39"/>
            <line fill="none" stroke="currentColor" stroke-linecap="round" stroke-miterlimit="10" stroke-width="2" x1="35" x2="15" y1="43" y2="43"/>
        </g>
    </defs>
    <use xlink:href="#Print" color="#444" />
    <use xlink:href="#Print" color="#55ff00" x="2" y="2" />
    <use xlink:href="#Print" color="#aa22cc" x="4" y="4" />
</svg>
